<svg id="visual" viewBox="0 0 900 600" width="900" height="600" xmlns="http://www.w3.org/2000/svg" xmlns:xlink="http://www.w3.org/1999/xlink" version="1.1"><rect x="0" y="0" width="900" height="600" fill="#FDFD96"></rect><defs><linearGradient id="grad1_0" x1="33.3%" y1="0%" x2="100%" y2="100%"><stop offset="20%" stop-color="#fdfd96" stop-opacity="1"></stop><stop offset="80%" stop-color="#fdfd96" stop-opacity="1"></stop></linearGradient></defs><defs><linearGradient id="grad2_0" x1="0%" y1="0%" x2="66.7%" y2="100%"><stop offset="20%" stop-color="#fdfd96" stop-opacity="1"></stop><stop offset="80%" stop-color="#fdfd96" stop-opacity="1"></stop></linearGradient></defs><g transform="translate(900, 0)"><path d="M0 298C-27.2 287.6 -54.5 277.2 -89.6 275.8C-124.8 274.5 -167.8 282.2 -194 267C-220.1 251.8 -229.5 213.6 -254.8 185.2C-280.2 156.7 -321.6 137.9 -334.3 108.6C-347 79.4 -331 39.7 -315 0L0 0Z" fill="#9A88FF"></path></g><g transform="translate(0, 600)"><path d="M0 -329C38.6 -335.2 77.2 -341.3 105.7 -325.3C134.1 -309.2 152.4 -270.8 179.9 -247.6C207.3 -224.3 244 -216.1 267 -194C289.9 -171.8 299.2 -135.7 311 -101C322.8 -66.4 337.2 -33.2 351.5 0L0 0Z" fill="#9A88FF"></path></g></svg>