<svg id="visual" viewBox="0 0 900 600" width="900" height="600" xmlns="http://www.w3.org/2000/svg" xmlns:xlink="http://www.w3.org/1999/xlink" version="1.1"><rect x="0" y="0" width="900" height="600" fill="#FFBA35"></rect><path d="M709 600L691.7 585.7C674.3 571.3 639.7 542.7 619.2 514.2C598.7 485.7 592.3 457.3 593.8 428.8C595.3 400.3 604.7 371.7 606 343C607.3 314.3 600.7 285.7 616.3 257C632 228.3 670 199.7 676.2 171.2C682.3 142.7 656.7 114.3 640.8 85.8C625 57.3 619 28.7 616 14.3L613 0L900 0L900 14.3C900 28.7 900 57.3 900 85.8C900 114.3 900 142.7 900 171.2C900 199.7 900 228.3 900 257C900 285.7 900 314.3 900 343C900 371.7 900 400.3 900 428.8C900 457.3 900 485.7 900 514.2C900 542.7 900 571.3 900 585.7L900 600Z" fill="#F7770F" stroke-linecap="round" stroke-linejoin="miter"></path></svg>