<svg id="visual" viewBox="0 0 800 400" width="800" height="400" xmlns="http://www.w3.org/2000/svg" xmlns:xlink="http://www.w3.org/1999/xlink" version="1.1"><path d="M0 57L12.2 54.3C24.3 51.7 48.7 46.3 72.8 54.3C97 62.3 121 83.7 145.2 84.3C169.3 85 193.7 65 218 57.7C242.3 50.3 266.7 55.7 291 55C315.3 54.3 339.7 47.7 363.8 49.7C388 51.7 412 62.3 436.2 63C460.3 63.7 484.7 54.3 509 51C533.3 47.7 557.7 50.3 582 55C606.3 59.7 630.7 66.3 654.8 73.7C679 81 703 89 727.2 84.3C751.3 79.7 775.7 62.3 787.8 53.7L800 45L800 0L787.8 0C775.7 0 751.3 0 727.2 0C703 0 679 0 654.8 0C630.7 0 606.3 0 582 0C557.7 0 533.3 0 509 0C484.7 0 460.3 0 436.2 0C412 0 388 0 363.8 0C339.7 0 315.3 0 291 0C266.7 0 242.3 0 218 0C193.7 0 169.3 0 145.2 0C121 0 97 0 72.8 0C48.7 0 24.3 0 12.2 0L0 0Z" fill="#ffdae8"></path><path d="M0 85L12.2 86.3C24.3 87.7 48.7 90.3 72.8 101.7C97 113 121 133 145.2 134.3C169.3 135.7 193.7 118.3 218 114.3C242.3 110.3 266.7 119.7 291 117.7C315.3 115.7 339.7 102.3 363.8 103.7C388 105 412 121 436.2 119C460.3 117 484.7 97 509 90.3C533.3 83.7 557.7 90.3 582 96.3C606.3 102.3 630.7 107.7 654.8 118.3C679 129 703 145 727.2 143C751.3 141 775.7 121 787.8 111L800 101L800 43L787.8 51.7C775.7 60.3 751.3 77.7 727.2 82.3C703 87 679 79 654.8 71.7C630.7 64.3 606.3 57.7 582 53C557.7 48.3 533.3 45.7 509 49C484.7 52.3 460.3 61.7 436.2 61C412 60.3 388 49.7 363.8 47.7C339.7 45.7 315.3 52.3 291 53C266.7 53.7 242.3 48.3 218 55.7C193.7 63 169.3 83 145.2 82.3C121 81.7 97 60.3 72.8 52.3C48.7 44.3 24.3 49.7 12.2 52.3L0 55Z" fill="#ffd1e3"></path><path d="M0 273L12.2 268.3C24.3 263.7 48.7 254.3 72.8 257.7C97 261 121 277 145.2 277C169.3 277 193.7 261 218 243C242.3 225 266.7 205 291 191C315.3 177 339.7 169 363.8 188.3C388 207.7 412 254.3 436.2 257C460.3 259.7 484.7 218.3 509 212.3C533.3 206.3 557.7 235.7 582 245C606.3 254.3 630.7 243.7 654.8 248.3C679 253 703 273 727.2 273C751.3 273 775.7 253 787.8 243L800 233L800 99L787.8 109C775.7 119 751.3 139 727.2 141C703 143 679 127 654.8 116.3C630.7 105.7 606.3 100.3 582 94.3C557.7 88.3 533.3 81.7 509 88.3C484.7 95 460.3 115 436.2 117C412 119 388 103 363.8 101.7C339.7 100.3 315.3 113.7 291 115.7C266.7 117.7 242.3 108.3 218 112.3C193.7 116.3 169.3 133.7 145.2 132.3C121 131 97 111 72.8 99.7C48.7 88.3 24.3 85.7 12.2 84.3L0 83Z" fill="#ffc8dd"></path><path d="M0 349L12.2 353C24.3 357 48.7 365 72.8 365C97 365 121 357 145.2 355.7C169.3 354.3 193.7 359.7 218 357C242.3 354.3 266.7 343.7 291 339C315.3 334.3 339.7 335.7 363.8 342.3C388 349 412 361 436.2 357.7C460.3 354.3 484.7 335.7 509 327C533.3 318.3 557.7 319.7 582 320.3C606.3 321 630.7 321 654.8 329C679 337 703 353 727.2 353.7C751.3 354.3 775.7 339.7 787.8 332.3L800 325L800 231L787.8 241C775.7 251 751.3 271 727.2 271C703 271 679 251 654.8 246.3C630.7 241.7 606.3 252.3 582 243C557.7 233.7 533.3 204.3 509 210.3C484.7 216.3 460.3 257.7 436.2 255C412 252.3 388 205.7 363.8 186.3C339.7 167 315.3 175 291 189C266.7 203 242.3 223 218 241C193.7 259 169.3 275 145.2 275C121 275 97 259 72.8 255.7C48.7 252.3 24.3 261.7 12.2 266.3L0 271Z" fill="#ffbad4"></path><path d="M0 401L12.2 401C24.3 401 48.7 401 72.8 401C97 401 121 401 145.2 401C169.3 401 193.7 401 218 401C242.3 401 266.7 401 291 401C315.3 401 339.7 401 363.8 401C388 401 412 401 436.2 401C460.3 401 484.7 401 509 401C533.3 401 557.7 401 582 401C606.3 401 630.7 401 654.8 401C679 401 703 401 727.2 401C751.3 401 775.7 401 787.8 401L800 401L800 323L787.8 330.3C775.7 337.7 751.3 352.3 727.2 351.7C703 351 679 335 654.8 327C630.7 319 606.3 319 582 318.3C557.7 317.7 533.3 316.3 509 325C484.7 333.7 460.3 352.3 436.2 355.7C412 359 388 347 363.8 340.3C339.7 333.7 315.3 332.3 291 337C266.7 341.7 242.3 352.3 218 355C193.7 357.7 169.3 352.3 145.2 353.7C121 355 97 363 72.8 363C48.7 363 24.3 355 12.2 351L0 347Z" fill="#ffaccb"></path></svg>